<svg width="17" height="17" viewBox="0 0 17 17" fill="none" xmlns="http://www.w3.org/2000/svg">
<path fill-rule="evenodd" clip-rule="evenodd" d="M8.49194 16.7773C10.6137 16.7773 12.6485 15.9345 14.1488 14.4342C15.6491 12.9339 16.4919 10.8991 16.4919 8.77734C16.4919 6.65561 15.6491 4.62078 14.1488 3.12049C12.6485 1.6202 10.6137 0.777344 8.49194 0.777344C6.37021 0.777344 4.33538 1.6202 2.83509 3.12049C1.3348 4.62078 0.491943 6.65561 0.491943 8.77734C0.491943 10.8991 1.3348 12.9339 2.83509 14.4342C4.33538 15.9345 6.37021 16.7773 8.49194 16.7773ZM12.1989 7.48434C12.3811 7.29574 12.4819 7.04314 12.4796 6.78094C12.4773 6.51875 12.3722 6.26793 12.1868 6.08253C12.0014 5.89712 11.7505 5.79195 11.4883 5.78967C11.2261 5.78739 10.9735 5.88819 10.7849 6.07034L7.49194 9.36334L6.19894 8.07034C6.01034 7.88819 5.75774 7.78739 5.49554 7.78967C5.23335 7.79195 4.98253 7.89712 4.79712 8.08253C4.61172 8.26793 4.50655 8.51875 4.50427 8.78094C4.50199 9.04314 4.60279 9.29574 4.78494 9.48434L6.78494 11.4843C6.97247 11.6718 7.22678 11.7771 7.49194 11.7771C7.75711 11.7771 8.01142 11.6718 8.19894 11.4843L12.1989 7.48434Z" fill="#509E8C"/>
</svg>
