<svg width="81" height="51" viewBox="0 0 81 51" fill="none" xmlns="http://www.w3.org/2000/svg">
<path d="M40.4562 28.4794C48.0656 28.4794 54.2342 22.3107 54.2342 14.7013C54.2342 7.09196 48.0656 0.92334 40.4562 0.92334C32.8468 0.92334 26.6782 7.09196 26.6782 14.7013C26.6782 22.3107 32.8468 28.4794 40.4562 28.4794Z" fill="#00E2B7"/>
<path d="M40.4561 30.7759H40.4561C45.3283 30.7759 50.001 32.7114 53.4461 36.1565C56.8913 39.6017 58.8268 44.2743 58.8268 49.1465V50.0651H22.0854V49.1465C22.0854 44.2743 24.0209 39.6017 27.4661 36.1565C30.9112 32.7114 35.5839 30.7759 40.4561 30.7759Z" fill="#00E2B7"/>
<path d="M12.4408 35.3683C17.7673 35.3683 22.0854 31.0503 22.0854 25.7237C22.0854 20.3971 17.7673 16.0791 12.4408 16.0791C7.11418 16.0791 2.79614 20.3971 2.79614 25.7237C2.79614 31.0503 7.11418 35.3683 12.4408 35.3683Z" fill="#009377"/>
<path d="M21.8865 39.7997C20.0329 38.156 17.7438 37.0829 15.2947 36.7094C12.8456 36.336 10.3407 36.6781 8.08144 37.6946C5.82215 38.7111 3.90468 40.3587 2.55968 42.4392C1.21468 44.5197 0.499437 46.9446 0.5 49.422V50.065H19.3299V49.1464C19.3258 45.8576 20.209 42.6286 21.8865 39.7997Z" fill="#009377"/>
<path d="M68.4713 35.3683C73.7978 35.3683 78.1159 31.0503 78.1159 25.7237C78.1159 20.3971 73.7978 16.0791 68.4713 16.0791C63.1447 16.0791 58.8267 20.3971 58.8267 25.7237C58.8267 31.0503 63.1447 35.3683 68.4713 35.3683Z" fill="#009377"/>
<path d="M59.0259 39.7997C60.8795 38.156 63.1685 37.0829 65.6177 36.7094C68.0668 36.336 70.5716 36.6781 72.8309 37.6946C75.0902 38.7111 77.0077 40.3587 78.3527 42.4392C79.6977 44.5197 80.4129 46.9446 80.4124 49.422V50.065H61.5824V49.1464C61.5865 45.8576 60.7033 42.6286 59.0259 39.7997Z" fill="#009377"/>
</svg>
