<svg width="39" height="50" viewBox="0 0 39 50" fill="none" xmlns="http://www.w3.org/2000/svg">
<path d="M32.3407 21.6297V12.8217C32.342 11.1461 32.013 9.48663 31.3726 7.9382C30.7322 6.38976 29.793 4.98267 28.6085 3.79738C27.4241 2.61209 26.0177 1.67182 24.4697 1.0303C22.9218 0.388776 21.2626 0.0585937 19.5869 0.0585938C17.9113 0.0585937 16.2521 0.388776 14.7041 1.0303C13.1561 1.67182 11.7497 2.61209 10.5653 3.79738C9.38086 4.98267 8.44164 6.38976 7.80125 7.9382C7.16085 9.48663 6.83186 11.1461 6.83308 12.8217V21.6297C5.12827 21.7064 3.51867 22.4375 2.33911 23.6707C1.15956 24.904 0.500847 26.5445 0.5 28.251V49.0652H38.6738V28.251C38.673 26.5445 38.0143 24.904 36.8347 23.6707C35.6552 22.4375 34.0456 21.7064 32.3407 21.6297ZM19.5869 4.55836C21.7777 4.56091 23.8779 5.43237 25.427 6.98151C26.976 8.53065 27.8473 10.631 27.8497 12.8217V21.6143H11.3241V12.8217C11.3265 10.631 12.1978 8.53065 13.7469 6.98151C15.2959 5.43237 17.3962 4.56091 19.5869 4.55836Z" fill="#00E2B7"/>
</svg>
