<svg width="48" height="51" viewBox="0 0 48 51" fill="none" xmlns="http://www.w3.org/2000/svg">
<path d="M22.0701 1.29439C22.0701 1.29439 5.06929 8.27687 3.24778 9.03583C1.42626 9.7948 0.515498 11.6163 0.515498 13.4378C0.515498 15.2593 -0.850646 39.0277 22.0701 50.5196C22.0701 50.5196 24.1504 51.0952 25.7287 50.5196C27.3069 49.944 47.3436 40.2293 47.3436 13.3619C47.3436 13.3619 47.3436 10.6297 44.156 9.11172C40.9683 7.59379 25.5566 1.29439 25.5566 1.29439C25.5566 1.29439 23.6639 0.459527 22.0701 1.29439Z" fill="#00E2B7"/>
<path opacity="0.2" d="M23.8916 6.75879V44.0078C23.8916 44.0078 41.0442 35.7512 40.8924 14.0449L23.8916 6.75879Z" fill="black"/>
</svg>
