<?xml version="1.0" encoding="UTF-8"?><svg id="Layer_1" xmlns="http://www.w3.org/2000/svg" viewBox="0 0 370 225"><defs><style>.cls-1{fill:#f0f0f0;}</style></defs><path class="cls-1" d="M123.03,94.25c.45,.26,.96,.54,1.63,.88l1.89,.94c3.52,1.76,7.78,2.57,11.08,1.81,4.2-.96,6.64-4.26,6.64-9.96,0-11.76-14.1-13.66-20.9-4.6-4.47,5.96-4.41,8.55-.34,10.93Zm1.14-10.33c2.79-3.72,7.55-5.73,11.78-5.16,4.45,.61,7.32,3.86,7.32,9.15,0,5.26-2.13,8.14-5.86,9-3.06,.7-7.08-.07-10.42-1.74l-1.87-.93c-.66-.34-1.15-.6-1.59-.85-3.46-2.03-3.51-3.93,.64-9.47Z"/><path class="cls-1" d="M120.53,104.05c11.79,6.56,24,6.5,26.72-3.3h0c3.68-13.26,1.86-22.93-7.3-26.59-5.18-2.08-9.27-1.71-14,.72-1.34,.71-2.65,1.47-3.92,2.3l-2.03,1.3c-1.46,.96-2.95,1.86-4.48,2.7-8.8,4.89-5.17,17.23,5,22.87Zm-4.52-21.99c.78-.43,1.56-.89,2.38-1.39,.66-.4,1.32-.82,2.16-1.35l2.03-1.3c1.25-.81,2.53-1.56,3.84-2.25h0c4.48-2.31,8.27-2.64,13.17-.69,8.55,3.43,10.27,12.57,6.7,25.4-2.48,8.93-13.97,8.99-25.28,2.7-9.59-5.32-12.94-16.72-5-21.12Z"/><path class="cls-1" d="M21.2,104.66c-.63,1.26-.96,2.45-1.56,5.47-.98,4.87-1.36,6.59-2.36,10.37-.9,3.45-1.66,6.85-2.4,10.63-.28,1.43-.55,2.86-.88,4.73-.26,1.46-.53,2.91-.8,4.37-1.95,10.52-3.7,15.44-7.8,20.07-1.62,1.72-3.37,3.31-5.23,4.77-.03,.02-.09,.08-.17,.14v1.28c.42-.34,.71-.58,.8-.65,1.9-1.49,3.68-3.12,5.34-4.88,4.27-4.8,6.06-9.86,8.04-20.54l.39-2.15c.41-2.32,.84-4.64,1.29-6.95,.74-3.76,1.49-7.13,2.39-10.56,1.01-3.81,1.39-5.55,2.37-10.44,.59-2.92,.89-4.06,1.47-5.22,1.12-2.24,1.23-2.34,12-11.08h0c7.56-6.15,12.05-8.02,23.31-11.09,6.25-1.7,9.36-3.02,12.7-5.92,3.62-3.15,7.17-4.33,15.38-5.88,2.76-.52,3.7-.7,5.11-1.02,5.6-1.28,9.74-3.02,13.5-6.09,10.25-8.39,25.01-13.89,35.68-13.89,4.97,0,16.21,7.44,25.01,16.84,10.5,11.22,15.59,22.71,12.52,31.49-3.11,8.87-11.2,18.22-22.72,27.4-8.38,6.69-18.24,12.92-25.03,16.32-3.92,1.96-6.91,5.11-10.18,10.37-.71,1.12-11.12,20.26-16.02,27.8-5.53,8.52-15.24,17.16-29.97,27.7-2.74,1.96-5.56,3.92-9.19,6.4l-8.6,5.89c-2.57,1.78-4.73,3.3-6.58,4.66h1.7c1.58-1.14,3.38-2.4,5.44-3.83,1.79-1.24,8.47-5.8,8.6-5.89,3.09-2.11,6.16-4.25,9.2-6.42,14.83-10.6,24.61-19.31,30.23-27.96,4.93-7.58,15.34-26.73,16.03-27.83,3.18-5.11,6.05-8.13,9.77-9.99,6.86-3.43,16.78-9.7,25.22-16.43,11.64-9.29,19.85-18.76,23.03-27.86,3.23-9.23-2-21.04-12.73-32.5-8.97-9.58-20.41-17.16-25.74-17.16-10.91,0-25.89,5.58-36.31,14.11-3.62,2.96-7.62,4.65-13.1,5.89-1.39,.32-2.31,.5-5.06,1.02-8.39,1.58-12.06,2.8-15.86,6.1-3.19,2.77-6.19,4.05-12.31,5.72-11.38,3.1-15.98,5.02-23.68,11.27h0c-10.98,8.92-11.03,8.97-12.25,11.42Z"/><path class="cls-1" d="M75.55,124.52c-2.78-.86-5.66-1.33-8.57-1.4-3.01,.35-5.9,1.36-8.47,2.97-4.42,2.79-7.4,7.18-8.24,13.46-1.96,14.75,1.84,19.82,11.66,16.54,12.83-4.27,22.34-11.88,22.34-21.47,0-5.07-3.3-8.32-8.72-10.1Zm-13.94,30.63c-8.98,2.99-12.23-1.35-10.34-15.46,.79-5.98,3.59-10.12,7.77-12.76,2.24-1.4,4.73-2.33,7.34-2.73,.31-.05,.53-.08,.66-.08,2.79,.04,5.55,.5,8.2,1.35,5.05,1.65,8.03,4.59,8.03,9.15,0,9-9.2,16.37-21.66,20.53Z"/><path class="cls-1" d="M320.31,35.44c-1.24,3.34-2.73,6.57-4.48,9.67-3.49,6-6.66,8.67-12.96,11.77l-4.04,1.97c-5.59,2.72-10.77,6.22-15.38,10.4-8.33,7.44-13.9,16.83-22.77,35.9l-2.09,4.5c-7.25,15.62-11.42,23.16-17.18,29.64-7.53,8.47-19.95,14.17-39.85,19.78-4.35,1.23-19.01,5.07-19.22,5.13-6.95,1.87-11.75,3.36-15.75,4.96-10.69,4.27-18.91,10.61-36.67,26.7l-1.7,1.54c-8.55,7.74-13.37,11.87-18.74,15.82-3.92,2.89-7.96,5.65-12.92,8.87-.8,.52-2.55,1.65-4.5,2.91h1.83c1.4-.9,2.59-1.66,3.21-2.07,4.97-3.24,9.02-6.01,12.97-8.91,5.4-3.98,10.23-8.12,18.81-15.88l1.7-1.54c17.67-16,25.83-22.3,36.38-26.52,3.95-1.58,8.71-3.05,15.63-4.92,.2-.05,14.87-3.9,19.24-5.13,20.06-5.66,32.61-11.42,40.31-20.08,5.85-6.57,10.05-14.17,17.35-29.87l2.08-4.49c8.82-18.97,14.34-28.27,22.54-35.6,4.54-4.12,9.65-7.57,15.16-10.25l4.03-1.96c6.46-3.19,9.78-5.98,13.38-12.18,1.78-3.14,3.3-6.42,4.56-9.8,4.47-11.63,11.23-19.63,19.53-24.5,6.1-3.57,12.6-5.18,18-5.18,3.98,0,7.53-.04,11.23-.16v-1c-3.69,.12-7.24,.16-11.22,.16-5.57,0-12.25,1.66-18.5,5.32-8.5,4.98-15.41,13.16-19.97,25Z"/><path class="cls-1" d="M15.29,111.52C10.53,134.35,7.49,143.19,0,153.04v1.65c8.19-10.42,11.32-19.19,16.26-42.94,3.08-14.79,6.42-19.78,14.65-24.6l4.7-2.67c1.86-1.07,3.67-2.21,5.44-3.43,3.78-2.65,7.79-4.95,11.99-6.86,.84-.39,1.72-.78,2.76-1.23l4.37-1.88c6.13-2.64,12.09-5.65,17.85-9.01,7.48-4.37,15.13-8.43,22.93-12.17,1.56-.75,3.16-1.5,4.86-2.3,4.21-1.94,21.87-9.82,21.17-9.5,18.8-8.47,27.37-6.85,48.5,7.95,7.73,5.41,12.94,12.94,16.09,22.16,2.96,8.7,3.7,16.3,3.7,27.43,0,8.18-.65,12.67-3.57,18.53-4.08,8.16-12.05,15.8-25.17,23.03-24.6,13.57-39.09,27.74-53.17,48.16-6.03,8.72-26.35,26.32-44.06,39.65h1.66c17.53-13.28,37.25-30.43,43.22-39.09,14-20.29,28.38-34.35,52.83-47.84,13.28-7.33,21.4-15.11,25.58-23.47,3.02-6.02,3.68-10.65,3.68-18.97,0-11.24-.74-18.92-3.76-27.75-3.21-9.41-8.54-17.12-16.45-22.66-21.4-14.98-30.33-16.67-49.5-8.05,.72-.32-16.95,7.57-21.17,9.52-9.52,4.38-18.82,9.21-27.87,14.5-5.73,3.34-11.65,6.33-17.74,8.96l-4.37,1.88c-1.05,.46-1.94,.84-2.78,1.24-4.26,1.95-7.84,3.97-12.14,6.95h0c-1.75,1.19-3.54,2.32-5.38,3.37-.75,.43-3.9,2.21-4.7,2.68-8.49,4.97-12,10.2-15.12,25.25Z"/><path class="cls-1" d="M309.59,195.81s-1.97-1.41-2.55-1.93c-2.2-1.98-3.02-2.54-4.2-2.28-1.56,.35-2.07,2.21-2.07,6.02,0,7.64,5.09,10.19,8.83,4.55,2.03-3.05,1.95-4.79-.01-6.36Zm-1.65,5.26c-2.5,3.76-5.17,2.42-5.17-3.45,0-2.83,.33-4.03,.5-4.06,.2-.05,.93,.45,2.43,1.8h0c.69,.61,2.67,2.04,2.64,2.01,1.07,.86,1.1,1.44-.4,3.7Z"/><path class="cls-1" d="M71.86,21.37c.78-.6,6.42-4.85,7.94-6.03,2.83-2.19,4.82-3.87,6.32-5.37,6.39-6.38,5.92-5.96,7.14-6.24,.68-.16,6.31,.39,9.51,.39,5.39,0,7.35-.35,9.25-1.49l1.34-.86c.6-.38,1.13-.69,1.76-1.02,.53-.26,1.06-.51,1.6-.75h-2.3c-.55,.3-1.06,.59-1.6,.93l-1.31,.84c-1.71,1.03-3.52,1.35-8.74,1.35-3.05,0-8.87-.56-9.74-.36-1.51,.35-.87-.23-7.61,6.51-1.97,1.89-4.05,3.65-6.23,5.28-1.51,1.17-7.15,5.42-7.94,6.02-4.99,3.82-8.4,6.66-11.15,9.48-5.14,5.24-7.26,9.72-5.8,13.74,1.55,4.28,4.87,5.18,10.17,3.43,2.72-.98,5.36-2.16,7.9-3.54,1.51-.78,7.79-4.13,9.37-4.96,3.96-2.11,8.03-3.99,12.21-5.63,2.95-1.13,6.4-2.66,11.11-4.88l13-6.22c4.4-2.08,8.09-3.77,11.61-5.27,16.9-7.21,28.89-9.75,36.92-6.63l5.43,2.08c2.3,.89,4.16,1.63,6,2.38,4.79,1.97,8.99,3.87,12.99,5.97,18.11,9.5,29.92,21.8,34.27,39.22,6.9,27.57,3.6,44.96-7.92,61.6-4.36,6.3-3.76,10.84,.94,10.53,4.52-.3,10.84-5.17,15.89-12.98,3.17-4.91,5.19-10.63,8.17-21.81l1.69-6.35c.67-2.47,1.24-4.51,1.82-6.47,4.89-16.36,10.85-26.91,21.19-34.23,7.12-5.05,23.7-15.48,25.48-16.75,6.88-4.92,10.8-9.7,14.7-18.5,2.79-6.27,6.32-11.14,10.83-14.78h-1.54c-4.2,3.66-7.55,8.43-10.23,14.47-3.81,8.56-7.6,13.19-14.34,18-1.75,1.25-18.33,11.69-25.48,16.75-10.56,7.48-16.63,18.2-21.56,34.76-.59,1.98-1.17,4.03-1.83,6.5l-1.69,6.35c-2.95,11.08-4.95,16.73-8.05,21.53-4.9,7.57-10.97,12.24-15.11,12.52-3.58,.23-4.03-3.22-.06-8.97,11.68-16.87,15.04-34.55,8.08-62.4-4.44-17.74-16.45-30.24-34.79-39.87-4.26-2.21-8.62-4.21-13.07-6-1.85-.76-3.72-1.5-6.02-2.38l-5.43-2.1c-8.35-3.25-20.53-.65-37.67,6.65-3.55,1.51-7.24,3.19-11.65,5.29-2.26,1.06-10.96,5.25-13,6.22-3.62,1.75-7.3,3.36-11.04,4.84-4.21,1.65-8.32,3.55-12.31,5.68-1.59,.83-7.87,4.19-9.37,4.96-2.5,1.36-5.1,2.52-7.77,3.48-4.83,1.6-7.56,.85-8.9-2.82-1.29-3.55,.68-7.72,5.56-12.7,2.73-2.78,6.1-5.6,11.06-9.38Z"/><path class="cls-1" d="M331.26,165.73c1.3-1.24,2.59-2.49,3.86-3.76,2.34-2.34,2.75-4.01,1.14-4.9-1.05-.58-2.67-.71-5.83-.66h-.72c-2.95,.07-4.05,.02-4.75-.25-1.08-.44-2.12-.98-3.1-1.6l-1.39-.84c-1.38-.82-2.41-1.29-3.58-1.59-4.54-1.13-7.81,2.26-12.25,10.4,.06-.12-2.13,3.98-2.72,5.01-.71,1.33-1.55,2.59-2.52,3.75-5.99,6.64-8.13,12.43-8.13,26.33,0,8.3,3.86,12.38,10.41,13.44,2.11,.34,4.08,.35,6.94,.17l.64-.04c.5-.05,1.01-.07,1.51-.07,4.11,0,6.67-9.52,5.49-16.58-1-6-.9-7.32,.98-12.76h0c1.27-3.65,3.42-5.95,14.02-16.05Zm-14.96,15.73h0c-1.94,5.6-2.05,7.08-1.03,13.24,1.1,6.52-1.3,15.42-4.5,15.42-.26,0-.57,.01-.99,.04-.41,.02-.82,.05-1.23,.07-2.79,.18-4.7,.17-6.71-.16-6.09-.98-9.57-4.66-9.57-12.45,0-13.67,2.06-19.2,7.87-25.67,1.02-1.21,1.91-2.52,2.65-3.92,.59-1.04,2.8-5.15,2.73-5.02,4.21-7.73,7.25-10.87,11.13-9.9,1.17,.32,2.29,.82,3.31,1.47l1.38,.83c1.28,.77,2.19,1.26,3.25,1.67,.88,.36,2,.4,5.14,.34h.72c2.95-.06,4.5,.07,5.32,.52,.82,.45,.59,1.38-1.35,3.33-1.12,1.11-2.3,2.26-3.85,3.73-10.81,10.29-12.93,12.56-14.27,16.46Z"/><path class="cls-1" d="M362.7,124c-4.62,5.49-4.99,9.53-.17,12.13,2.58,1.48,5.07,3.1,7.47,4.85v-1.22c-2.92-2.08-5.12-3.51-6.99-4.52-4.12-2.21-3.82-5.53,.46-10.61,1.92-2.27,3.01-3.48,6.53-6.54v-1.32c-4.1,3.54-5.22,4.76-7.3,7.22Z"/><path class="cls-1" d="M202.89,200.11c37.2-8.68,51.19-12.75,59.17-18.07,8.8-5.87,21.55-24.99,37.16-55.19,5.16-9.97,12.13-18.17,20.89-25.4,5.09-4.2,9.49-7.19,17.44-12.15,7.53-4.69,9.74-6.22,11.6-8.35,1.26-1.55,2.3-3.27,3.1-5.1,.62-1.32,2.89-6.51,3.01-6.79,1.15-2.62,2.45-5.17,3.9-7.63,2.92-4.9,6.45-8.98,10.84-12.24v-1.24c-4.78,3.41-8.58,7.73-11.7,12.97-1.39,2.33-2.59,4.73-3.95,7.73-.13,.3-2.39,5.47-3,6.77-.76,1.75-1.75,3.39-2.95,4.87-1.76,2.02-3.96,3.54-11.38,8.16-7.99,4.98-12.42,7.99-17.55,12.23-8.86,7.31-15.91,15.61-21.13,25.71-15.54,30.04-28.24,49.08-36.84,54.81-7.83,5.23-21.8,9.29-58.83,17.93-13.78,3.22-25.24,8.48-35.18,15.58-4.54,3.24-8.22,6.36-12.2,10.29h1.44c3.67-3.56,7.14-6.46,11.34-9.46,9.84-7.03,21.17-12.24,34.82-15.42Z"/><path class="cls-1" d="M176.14,199.55c3.27-1.31,8-2.74,17.24-5.32,3.94-1.08,7.87-2.17,11.8-3.28,4.25-1.19,8.48-2.43,12.7-3.71,20.7-6.32,34.49-12.25,41.57-18.89,9.04-8.47,12.22-14.39,16.27-26.86,1.98-6.12,3.03-8.85,4.93-12.4,9.34-17.34,28.23-38.67,42.5-44.55,14.82-6.1,20.62-12.65,20.62-19.92,0-2.32,2.57-7.5,6.42-12.52,4.58-5.96,10.22-10.91,16-13.58,1.19-.55,2.48-1.08,3.81-1.6v-2.14c-1.64,.62-3.21,1.27-4.65,1.93-6.1,2.82-11.99,7.98-16.75,14.18-4.1,5.33-6.83,10.84-6.83,13.73,0,6.34-5.23,12.25-19.38,18.08-14.79,6.08-33.96,27.74-43.5,45.45-1.98,3.68-3.05,6.5-5.07,12.72-3.95,12.18-6.99,17.82-15.73,26.02-6.79,6.36-20.39,12.2-40.79,18.44-4.21,1.28-8.43,2.51-12.67,3.7-3.93,1.09-7.85,2.18-11.78,3.28-9.32,2.59-14.09,4.04-17.45,5.38-7.04,2.82-12.56,7.08-19.74,14.38-.16,.17-5.59,5.8-7.12,7.3-1.96,1.98-4.08,3.8-6.34,5.43-.08,.05-.19,.13-.28,.2h3.33c1.65-1.31,3.22-2.71,4.7-4.21,1.55-1.52,7-7.17,7.15-7.32,7-7.12,12.32-11.23,19.05-13.92Z"/><path class="cls-1" d="M357.58,26.88c-7.33,2.74-11.79,5.61-14.36,9.01-2.05,2.69-2.75,5.06-3.53,10.25-.89,5.98-1.49,8.5-3.37,12.27-4.23,8.45-9.17,12.03-21.1,17.38l-2.33,1.04c-5.06,2.3-8.29,4.04-11.43,6.4-13.07,9.8-16.18,14.42-32.15,49.19-6.26,13.62-12.55,22.41-19.33,27.87-4.95,4-8.31,5.44-16.97,8.1-2.57,.71-5.07,1.64-7.47,2.79-6.18,3.1-15.59,6.36-28.14,10-6.17,1.79-8.99,2.56-21.77,5.97-3.9,1.04-8.15,3.17-12.87,6.32-3.96,2.65-8.08,5.89-13.05,10.15-2.24,1.91-9.49,8.3-9.47,8.3-3.44,3-5.78,4.9-7.77,6.3-1.36,.95-5.97,3.9-10.46,6.79h1.84c4.06-2.61,7.96-5.11,9.2-5.98,2.72-1.99,5.34-4.11,7.84-6.37,0,0,7.24-6.38,9.48-8.3,4.11-3.61,8.44-6.97,12.95-10.07,4.63-3.09,8.79-5.18,12.56-6.19,7.29-1.9,14.56-3.89,21.8-5.97,12.6-3.66,22.06-6.94,28.3-10.06,2.36-1.12,4.81-2.04,7.33-2.73,8.77-2.7,12.22-4.17,17.3-8.27,6.9-5.57,13.29-14.49,19.6-28.25,15.92-34.63,18.95-39.12,31.85-48.8,3.07-2.3,6.24-4.02,11.25-6.29l2.31-1.04c5.98-2.67,8.81-4.14,11.93-6.4,4.12-2.96,7.44-6.89,9.66-11.45,1.94-3.88,2.57-6.48,3.47-12.56,.75-5.04,1.43-7.28,3.33-9.8,2.44-3.22,6.76-5.98,13.93-8.68,3.92-1.43,7.91-2.67,11.95-3.7,.04,0,.07-.02,.11-.03v-1.02c-.13,.03-.24,.06-.37,.1-4.69,1.23-8.68,2.47-12.05,3.73Z"/><path class="cls-1" d="M56.12,24.01c-7.03,6.54-11.92,11.86-14.77,16.34-5.99,9.4-10.58,18.22-11.82,24.42-1.89,9.45,4.53,10.95,20.48,2.29,14.53-7.87,29.36-15.16,44.46-21.86,3.51-1.57,14.04-6.21,15.69-6.95,3.68-1.59,7.3-3.32,10.85-5.19l1.95-1.07c2.34-1.31,4.72-2.55,7.14-3.71,17.83-8.59,33.88-10.29,49.45-1.21,22.53,13.15,37.72,36.51,37.72,55.55s-.71,24.84-5.06,32.72c-1.38,2.47-2.99,4.8-4.82,6.96-6.59,7.9-11.99,16.44-12.99,21.73-1.42,7.59,5.48,8.4,21.58,1.04,13.52-6.18,22.76-15.2,28.96-26.76,2.58-4.88,4.65-10,6.19-15.3,.9-3.01,3.17-11.7,3.4-12.5,.42-1.6,.99-3.17,1.69-4.67,7.37-14.74,20.85-30.14,35.75-36.77,7.86-3.49,13.37-9.9,19.86-21.2,.85-1.49,4.27-7.65,5.14-9.17,3.46-5.98,6.1-9.49,9.1-11.68,4.03-2.93,9.47-5.27,15.92-7.02h-3.53c-5.14,1.66-9.55,3.72-12.98,6.22-3.15,2.28-5.85,5.88-9.37,11.98-.88,1.53-4.3,7.69-5.14,9.17-6.4,11.14-11.79,17.41-19.4,20.79-15.16,6.74-28.78,22.31-36.25,37.24-.72,1.56-1.31,3.17-1.75,4.83-.24,.83-2.51,9.5-3.41,12.48-1.52,5.24-3.56,10.31-6.1,15.13-6.1,11.37-15.19,20.24-28.5,26.32-15.48,7.08-21.37,6.39-20.17,.05,.95-5.07,6.29-13.5,12.76-21.27,1.87-2.21,3.52-4.59,4.94-7.12,4.45-8.07,5.18-14.08,5.18-33.2s-15.39-43.1-38.28-56.44c-15.85-9.26-32.23-7.52-50.33,1.2-1.62,.79-3.24,1.61-5,2.55l-2.18,1.18-1.95,1.07c-2.48,1.35-5.73,2.9-10.78,5.15-1.64,.75-12.18,5.39-15.68,6.95-15.13,6.71-29.99,14.01-44.54,21.9-15.35,8.33-20.68,7.09-19.02-1.21,1.21-6.04,5.77-14.78,11.69-24.08,2.79-4.39,7.63-9.66,14.6-16.15,2.15-2,4.33-3.97,6.54-5.92,1.45-1.28,13.02-11.33,15.77-13.83,1.4-1.27,3.28-3.25,4.89-4.99h-1.37c-1.44,1.55-3,3.17-4.2,4.25-2.73,2.49-14.29,12.53-15.75,13.82-2.44,2.15-4.58,4.09-6.56,5.94Z"/><path class="cls-1" d="M252.89,10.11c7.94-1.87,14.66-5.33,20.42-10.11h-1.58c-5.44,4.29-11.73,7.41-19.08,9.13-7.27,1.71-11.33-.57-11.89-5.07-.18-1.41,.03-2.82,.5-4.06h-1.06c-.44,1.31-.62,2.75-.44,4.18,.65,5.14,5.3,7.76,13.12,5.93Z"/><path class="cls-1" d="M9.24,113.78c1-2.98,1.97-7.3,3.77-16.26l1.09-5.45,1.18-5.8c.92-4.5,1.77-8.41,2.64-12.14,3.48-14.96,7.06-25.96,11.28-33.26,4.05-7,9.26-12.79,16.63-19.14,2.17-1.87,10.87-8.94,12.88-10.7,3.82-3.34,6.5-6.17,8.48-9.14,.48-.72,.89-1.33,1.26-1.89h-1.21c-.28,.42-.57,.86-.9,1.34-1.91,2.88-4.53,5.65-8.3,8.93-2,1.75-10.69,8.82-12.88,10.7-7.43,6.42-12.72,12.29-16.83,19.4-4.29,7.4-7.89,18.48-11.39,33.54-1.39,5.96-2.66,11.95-3.82,17.96l-1.1,5.46c-1.79,8.91-2.76,13.21-3.73,16.13C5.92,120.6,3.09,127.89,0,134.74v2.42c3.46-7.45,6.62-15.51,9.24-23.38Z"/><path class="cls-1" d="M307.8,217.51l1.02-.37c4.27-1.56,6.49-2.58,8.47-4.16,2.61-2.08,3.98-4.77,3.98-8.36,0-16.27,3.45-28.59,11.75-33.57,5.18-3.11,9.7-7.96,11.1-12.02,1.66-4.84-1.15-7.91-8.35-7.91-4.27,0-7.87-1.1-12.65-3.44l-1.26-.63c-1.16-.61-2.34-1.18-3.54-1.7-1.71-.75-3.06-1.14-4.32-1.2-3.03-.13-5.43,1.75-7.68,6.25-6.96,13.92-28.9,37.85-43.83,47.8-6.68,4.45-18.64,8.42-38.23,13.35-4.03,1.01-17.98,4.4-20.56,5.05-7.4,1.85-12.39,3.24-16.1,4.55-3.58,1.26-6.35,2.52-8.52,3.85h2.04c1.86-.98,4.09-1.94,6.83-2.91h0c3.67-1.29,8.63-2.68,16-4.52,2.58-.65,16.53-4.03,20.56-5.05,19.71-4.96,31.74-8.94,38.55-13.48,15.07-10.05,37.13-34.12,44.17-48.19,2.09-4.18,4.16-5.8,6.74-5.7,1.94,.09,1.2-.24,8.72,3.43,4.9,2.4,8.64,3.54,13.09,3.54,6.57,0,8.82,2.46,7.4,6.59-1.31,3.81-5.66,8.48-10.66,11.48-8.71,5.23-12.24,17.83-12.24,34.43,0,5.91-3.19,8.45-11.79,11.58l-1.02,.37c-5,1.8-7.21,2.86-9.04,4.7-1.52,1.51-3.26,2.74-5.17,3.73h2.02c1.39-.86,2.68-1.86,3.84-3.03,1.7-1.69,3.83-2.71,8.68-4.46Z"/><path class="cls-1" d="M0,80.85v3.78C6.11,61.42,20.97,27.19,29.04,22.03c7.5-4.77,17.3-13.55,24.9-22.03h-1.35c-7.45,8.19-16.87,16.6-24.09,21.19C20.58,26.23,6.65,57.62,0,80.85Z"/><path class="cls-1" d="M314.19,224.64c.93-.36,3.84-1.43,4.27-1.59,5.13-1.95,7.78-3.72,10.6-7.69,1.63-2.37,3.02-4.89,4.16-7.53,3.05-6.77,3.49-10.95,2.8-17.42-.26-2.5-.32-3.26-.26-4.43,.21-4.59,3.03-8.66,11.31-14.96,9.69-7.38,12.19-14.11,8.89-20.26-2.32-4.32-6.47-7.43-13.95-11.58-1.72-.95-3.86-1.44-6.81-1.68-.83-.08-1.37-.11-2.98-.2-5.15-.27-6.72-.73-6.79-2.38-.08-2.41,3.45-7.37,11.7-15.95,6.51-6.78,11.7-11.64,16.25-15.38,1.68-1.38,3.4-2.71,5.16-3.99l4.11-2.94c.8-.58,1.48-1.1,2.13-1.62,1.77-1.4,3.43-2.95,5.22-4.88v-1.49c-2.04,2.29-3.87,4.03-5.84,5.6-.64,.51-1.31,1.01-2.1,1.59l-4.12,2.94c-1.78,1.31-3.41,2.56-5.2,4.03-4.58,3.76-9.8,8.65-16.33,15.45-8.47,8.82-12.07,13.88-11.97,16.69,.09,2.49,1.95,3.04,7.72,3.34,1.61,.09,2.15,.12,2.95,.19,2.82,.24,4.85,.69,6.42,1.57,7.3,4.05,11.35,7.08,13.55,11.17,3.04,5.66,.71,11.89-8.62,19-8.49,6.46-11.48,10.76-11.7,15.7-.04,1.53,.05,3.06,.27,4.58,.67,6.31,.25,10.32-2.72,16.9-1.38,3.07-2.71,5.47-4.06,7.37-2.7,3.78-5.19,5.45-10.14,7.33-.42,.16-3.34,1.23-4.28,1.59-1.11,.43-2.13,.85-3.15,1.3h2.6c.3-.12,.6-.24,.91-.36Z"/><path class="cls-1" d="M19.38,0h-2.96C11.58,4.77,7.2,11.52,3.01,20.28,1.97,22.46,.98,24.65,0,26.96v5.29c1.59-4.04,3.13-7.58,4.81-11.09C9.36,11.63,14.11,4.61,19.38,0Z"/><path class="cls-1" d="M294.31,16.43c-2.11,5.01-5.66,9.21-10.77,13.11-3.95,3.03-7.89,5.33-15.87,9.54-.06,.02-1.65,.87-2.12,1.12-10.78,5.69-16.18,9.12-21.13,14.06-4.63,4.63-7.49,3.85-10.89-2-1.08-1.86-7.81-16.46-10.54-21.19-5.4-9.39-11.68-16.31-19.98-20.89-5.87-3.24-12.12-5.72-18.62-7.37-4.45-1.14-6.02-1.43-14.83-2.81h-5.94c1.49,.29,3.16,.58,5.12,.88,9.38,1.47,10.9,1.73,15.4,2.9,6.42,1.63,12.6,4.07,18.4,7.28,8.12,4.48,14.27,11.26,19.6,20.5,2.69,4.7,9.42,19.28,10.54,21.2,3.7,6.37,7.31,7.36,12.45,2.22,4.86-4.86,10.2-8.25,20.9-13.9l2.12-1.12c8.02-4.23,11.99-6.55,16.01-9.62,5.24-4,8.89-8.33,11.08-13.52,2.7-6.41,5.77-12.08,9.07-16.82h-1.22c-3.19,4.69-6.16,10.22-8.77,16.43Z"/><path class="cls-1" d="M1.13,51.67c1.01-3.59,2.1-7.16,3.27-10.7,4.85-14.6,10.5-24.87,18.7-31.97,1.76-1.52,6.73-5.64,10.74-9h-1.56c-3.82,3.19-8.19,6.83-9.83,8.25C14.08,15.49,8.35,25.9,3.45,40.65c-1.07,3.21-2.07,6.5-3.28,10.74C.17,51.4,.1,51.63,0,51.99v3.67c.61-2.13,1.13-3.96,1.13-3.99Z"/><path class="cls-1" d="M280.74,2.36c-1.84,2.42-3.42,4.92-4.86,7.82-2.68,5.35-6.73,9.57-12.15,13.1-4.12,2.67-8.03,4.49-15.33,7.42-9.91,3.96-14.43,1.33-24.78-15.6-3.13-5.14-9.35-9.25-18.87-13.44-.88-.39-2.33-.99-3.97-1.66h-5.31c3.24,1.31,6.86,2.78,8.48,3.49,9.18,4.03,15.12,7.97,17.98,12.66,10.79,17.66,16.21,20.8,27.22,16.4,7.42-2.97,11.42-4.83,15.67-7.59,5.71-3.71,10-8.19,12.85-13.89,1.32-2.64,2.88-5.15,4.68-7.5,.84-1.1,1.72-2.18,2.63-3.23l.3-.34h-2.6c-.65,.78-1.31,1.56-1.93,2.36Z"/><path class="cls-1" d="M256.98,194.07c9.66-4.83,24.58-21.35,37.18-38.15,.75-.99,13.54-21.66,19.22-29.63,9.27-13.01,18.06-22.34,26.63-27.24,7.43-4.24,13.41-10.47,19.13-19.04,1.59-2.38,7.52-12.51,10.86-17.69v-1.82c-3.12,4.65-9.99,16.4-11.69,18.95-5.64,8.45-11.51,14.56-18.8,18.73-8.73,4.98-17.6,14.4-26.95,27.53-5.7,8-18.49,28.65-19.2,29.6-12.5,16.67-27.36,33.12-36.82,37.85-11.94,5.97-55.86,17.95-65.78,17.95-4.39,0-13.37,5.68-23.46,13.88h1.59c9.51-7.64,17.84-12.88,21.86-12.88,10.08,0,54.16-12.02,66.22-18.05Z"/><path class="cls-1" d="M110.24,131.77c1.41-4.46,3.87-7.42,7.5-9.44,2.82-1.57,5.56-2.36,11.6-3.65,1.93-.41,2.28-.48,3.13-.68,9.35-2.11,14.68-4.87,18.72-11.11,10.25-15.84,5.68-30.71-9.18-38.71-5.98-3.22-8.47-3.95-11.04-3.12-.73,.23-1.47,.6-2.43,1.17-.55,.33-2.8,1.74-2.95,1.84h0c-3.18,1.98-6.53,3.68-10.01,5.09-1.84,.76-3.49,1.55-4.99,2.38-2.48,1.35-4.77,3.03-6.79,5-1.1,1.08-4.02,4.4-3.85,4.22-2.28,2.44-4.24,3.36-8.18,3.36-6.03,0-8.97,1.53-12.33,5.53-.25,.29-2.04,2.5-2.63,3.19-1.03,1.22-2.16,2.36-3.37,3.4-.6,.52-1.21,.96-1.82,1.33-2.32,1.41-4.25,1.78-9,2.05-7.49,.43-11.44,1.06-18.03,3.53-5.59,2.1-9.26,5.7-11.72,11.13-1.99,4.38-3.07,9.24-4.49,18.65-.42,2.97-.87,5.94-1.35,8.9-.56,3.55-1.12,6.64-1.75,9.69-1.07,5.12-4.54,18.52-4.84,20.65-.64,4.57,.48,6.98,4.5,9.31,1.82,1,3.7,1.87,5.64,2.6,5.6,2.24,10.46,3.14,15.4,2.89,6.85-.36,11.53-1.96,27.98-8.89,16.56-6.97,28.41-25.38,36.28-50.31Zm-36.66,49.39c-16.33,6.87-20.96,8.46-27.65,8.8-4.79,.25-9.51-.62-14.97-2.8-2.42-.97-4.17-1.78-5.52-2.55-3.66-2.12-4.6-4.13-4.01-8.3,.29-2.06,3.75-15.41,4.83-20.59,.64-3.06,1.19-6.17,1.76-9.73l.7-4.57,.65-4.34c1.41-9.32,2.48-14.12,4.41-18.39,2.35-5.2,5.83-8.6,11.17-10.6,6.47-2.43,10.33-3.05,17.72-3.47,4.92-.29,6.97-.68,9.47-2.19,.66-.4,1.31-.88,1.96-1.43,1.25-1.08,2.41-2.25,3.47-3.51,.6-.7,2.4-2.92,2.63-3.2,3.18-3.78,5.85-5.17,11.57-5.17,4.23,0,6.45-1.04,8.91-3.67,1.24-1.43,2.51-2.83,3.82-4.2,1.96-1.91,4.17-3.53,6.57-4.84,1.47-.81,3.09-1.58,4.89-2.33,3.53-1.43,6.93-3.16,10.16-5.17,.16-.1,2.38-1.5,2.93-1.82,.9-.54,1.58-.88,2.23-1.08,2.22-.71,4.5-.05,10.25,3.05,14.37,7.74,18.74,21.95,8.82,37.29-3.86,5.97-8.98,8.61-18.1,10.67-.84,.19-1.2,.28-3.12,.68-6.13,1.31-8.94,2.13-11.87,3.76-3.85,2.14-6.48,5.3-7.97,10-7.79,24.69-19.5,42.87-35.71,49.7Z"/><path class="cls-1" d="M215.1,225h5.59c-.07-.02-.14-.05-.21-.07-1.39-.31-2.56-.3-5.38,.07Z"/><path class="cls-1" d="M82.26,190.34c15.56-8.75,34.51-33.9,34.51-44.87,0-4.93,2.94-7.95,8.99-10.73,1.06-.49,4.81-2.06,5.52-2.39,.8-.36,1.45-.69,2-1.02,.83-.5,1.69-.92,3.03-1.5,7.93-3.48,11.3-5.82,17.26-13.76,.94-1.25,7.5-9.46,8.6-11.3,2-3.38,2.6-6.74,2.6-14.3h0c0-7.06-4.46-16.48-11.01-23.67-7.15-7.84-15.38-11.6-22.33-9.12-13.86,4.95-16,5.97-25.2,11.95-2.32,1.51-9.43,6.71-10.99,7.68-3.5,2.18-6.54,3.16-10.47,3.16-8.83,0-11.37,1.65-15.87,9.5-1.38,2.42-2.39,2.52-7.43,1.52-5.97-1.19-9.98-.93-15.2,2.12-16.28,9.49-27.5,24.45-27.5,42.86,0,8.72-3.16,16.52-9.85,27.22-.84,1.36-3.83,6.01-3.67,5.76-1.41,2.22-2.38,3.82-3.23,5.35C1.18,176.31,.51,177.68,0,178.96v9.66c.75,1.08,1.84,1.97,3.25,2.7,2.09,1.09,4.19,1.65,9.03,2.64l.6,.12c7.58,1.55,10.66,2.84,11.98,5.81,2.13,4.8,11.29,5.22,24.62,2.32,11.48-2.5,24.6-7.26,32.78-11.86Zm-55.58,8.72c-1.7-3.82-5.13-5.25-13.4-6.95l-.61-.12c-9.03-1.85-11.9-3.33-11.9-7.52,0-2.32,.98-5.07,3-8.7,.82-1.48,1.78-3.06,3.17-5.25l3.68-5.77c6.87-10.99,10.15-19.08,10.15-28.28,0-17.59,10.78-31.97,26.5-41.14,4.73-2.76,8.27-2.98,13.8-1.88,3.32,.66,3.92,.75,5.22,.61,1.84-.21,3.25-1.18,4.35-3.09,4.15-7.27,6.05-8.5,14.13-8.5,4.33,0,7.73-1.1,11.53-3.46,1.64-1.02,8.77-6.24,11.01-7.7,9.07-5.9,11.07-6.85,24.8-11.75,6.01-2.15,13.5,1.27,20.17,8.59,6.24,6.84,10.49,15.82,10.49,22.32h0c0,7.23-.54,10.28-2.33,13.29-1,1.69-7.45,9.75-8.47,11.11-5.72,7.62-8.82,9.77-16.47,13.12-1.4,.62-2.33,1.07-3.25,1.62-.48,.29-1.06,.59-1.8,.93-.67,.3-4.42,1.88-5.52,2.38-6.69,3.07-10.16,6.65-10.16,12.55,0,10.14-18.51,34.7-33.49,43.13-18.6,10.46-51.43,17.6-54.6,10.46Z"/><path class="cls-1" d="M68.68,109.13h0c-3.25,.57-5.48,.76-10.81,1.03-6.8,.34-9.52,.82-12.33,2.62-3.52,2.27-5.81,6.49-7.26,13.74-.77,3.83-1.55,7.34-3.14,14.14l-.12,.51c-2.87,12.27-3.95,17.3-4.73,22.98-1.04,7.59-.8,12.76,1.06,15.73,5.21,8.35,26.56,6.25,40.71-3.85,12.56-8.98,18.37-15.61,23.16-25.19,7.06-14.13,11.01-29.62,5.93-35.55-6.11-7.13-16.32-9.03-32.47-6.16Zm25.64,41.27c-4.71,9.42-10.41,15.93-22.84,24.81-13.75,9.82-34.47,11.85-39.29,4.15-1.69-2.71-1.93-7.71-.9-15.07,.77-5.64,1.84-10.66,4.7-22.9l.12-.5c1.59-6.82,2.38-10.33,3.15-14.17,1.4-7.01,3.57-11,6.82-13.1,2.61-1.68,5.22-2.13,11.84-2.46,5.38-.27,7.64-.46,10.94-1.05,15.83-2.81,25.69-.97,31.53,5.84,4.68,5.45,.79,20.73-6.07,34.45Z"/><path class="cls-1" d="M360.67,111.44c-.56,.44-3.22,2.45-3.94,3-1.5,1.14-2.65,2.05-3.68,2.95-4.29,3.69-6.39,6.8-6.28,10.26,.19,5.9,10.98,16.3,23.23,24.81v-2.47c-11.28-8.02-21.07-17.51-21.23-22.4-.09-2.69,1.71-5.36,5.58-8.69,1.17-.99,2.37-1.95,3.59-2.88l3.94-2.98c3.61-2.74,6.11-4.86,8.12-7.01v-3.05s0,0,0,.01c-2.14,2.66-4.85,5.05-9.32,8.45Z"/><path class="cls-1" d="M84.77,115.12c-1.96,0-3.51-.04-7.38-.15l-3.89-.1c-7.94-.17-13.08,.13-17.48,1.33-5.63,1.52-9.25,4.47-10.73,9.27l-.37,1.2c-1.06,3.37-2.08,6.75-3.05,10.14-.9,3.11-1.69,6.01-2.37,8.76-3.55,14.38-4.01,23.61-.02,26.46,6.55,4.68,19.56,3.68,26.57-.99,8.84-5.9,24.64-22.76,27.2-31.28,2.34-7.8,3.19-11.92,2.77-15.94-.59-5.62-4.13-8.7-11.25-8.7Zm7.52,24.36c-2.47,8.24-18.14,24.95-26.8,30.73-6.69,4.45-19.25,5.42-25.42,1-3.47-2.47-3.03-11.52,.4-25.4,.68-2.74,1.46-5.63,2.36-8.73,.55-1.93,1.14-3.9,1.82-6.1,.54-1.74,1.07-3.47,1.6-5.21,1.36-4.44,4.71-7.17,10.03-8.6,4.28-1.17,9.35-1.47,17.2-1.3l3.88,.1c3.88,.11,5.44,.15,7.41,.15,6.61,0,9.72,2.7,10.25,7.8,.41,3.85-.43,7.89-2.73,15.56Z"/><path class="cls-1" d="M351.4,210.29c-4.48,4.98-9.99,10.09-15.84,14.71h1.6c5.53-4.45,10.71-9.3,14.98-14.05,4.12-4.57,10.54-9.18,17.86-13.04v-1.12c-7.62,3.97-14.32,8.74-18.6,13.5Z"/><path class="cls-1" d="M370,209.84v-1.22c-5.61,3.81-11.64,9.13-18.81,16.38h1.41c6.59-6.62,12.19-11.55,17.4-15.16Z"/><path class="cls-1" d="M370,224.58c-.15,.14-.31,.28-.46,.42h.46v-.42Z"/></svg>