<?xml version="1.0" encoding="UTF-8"?><svg id="Layer_1" xmlns="http://www.w3.org/2000/svg" viewBox="0 0 370 225"><defs><style>.cls-1{fill:#f0f0f0;}</style></defs><path class="cls-1" d="M276.16,170.02c-1.44-.99-3.8-1.62-5.88-1.8h0c-4.09-.34-7.23,1.84-7.23,6.5,0,5.69,7.71,6.5,12.85,1.35,2.46-2.45,2.38-4.58,.26-6.05Zm-.96,5.35c-4.62,4.61-11.15,3.93-11.15-.65,0-4,2.58-5.8,6.14-5.5h.01c1.92,.16,4.13,.75,5.4,1.63,1.58,1.09,1.63,2.48-.4,4.52Z"/><path class="cls-1" d="M185.65,0h-1.43c-4.78,4.77-6.17,6.75-7.14,9.57-1.94,5.6-2.05,7.08-1.03,13.24,1.1,6.52-1.3,15.42-4.5,15.42-.26,0-.57,.01-.99,.04-.41,.02-.82,.05-1.23,.07-2.79,.18-4.7,.17-6.71-.16-6.09-.98-9.57-4.66-9.57-12.45,0-13.67,2.06-19.2,7.87-25.67,.02-.02,.03-.04,.04-.06h-1.31c-5.58,6.4-7.61,12.25-7.61,25.73,0,8.3,3.86,12.38,10.41,13.44,2.11,.34,4.08,.35,6.94,.17l.64-.04c.5-.05,1.01-.07,1.51-.07,4.11,0,6.67-9.52,5.49-16.58-1-6-.9-7.32,.98-12.76,.96-2.75,2.42-4.74,7.63-9.89Z"/><path class="cls-1" d="M320.66,204.03c.9,.01,1.79,.14,2.66,.37l1,.23c3.75,.75,6.84-.68,13.05-6.89,2.31-2.3,4.22-4.83,7.32-9.4l1.52-2.25c4.05-5.96,6.57-9.11,9.85-11.82,3.9-3.32,8.83-5.15,13.94-5.22v-2c-5.58,.06-10.96,2.06-15.22,5.68-3.46,2.87-6.07,6.13-10.22,12.24l-1.52,2.25c-3.03,4.46-4.89,6.91-7.09,9.11-5.78,5.78-8.27,6.93-11.23,6.33-.25-.04-.26-.05-.96-.21-1.29-.29-2.07-.42-3.1-.42-1.44,0-2.93,.77-4.74,2.26-.7,.57-1.43,1.24-2.37,2.13l-2.46,2.39c-4.48,4.32-7.39,6.22-10.43,6.22-1.93,0-4.33,1.3-7.67,3.86-1.31,1.01-2.74,2.19-4.58,3.77l-2.68,2.34h3.04l.94-.82c1.82-1.56,3.23-2.72,4.5-3.7,2.99-2.3,5.12-3.45,6.45-3.45,3.75,0,6.97-2.11,11.82-6.78,5.77-5.55,6.58-6.22,8.18-6.22Z"/><path class="cls-1" d="M327.95,132.22c-5.77,0-9.96,2.65-13.62,7.45-.66,.88-1.29,1.78-1.88,2.7l-1.52,2.32c-1.83,2.7-3.61,7.13-3.93,10.61-.45,4.88,1.78,7.86,7.11,7.86,9.96,0,23.76-8.81,26.74-15.26h0c2.85-6.16-3.84-15.68-12.9-15.68Zm12,15.26h-.01c-2.81,6.1-16.26,14.68-25.83,14.68-4.69,0-6.52-2.44-6.12-6.77,.31-3.29,2.03-7.57,3.77-10.14,.32-.46,1.52-2.33,1.52-2.33,.68-1.04,1.25-1.84,1.85-2.64,3.49-4.58,7.42-7.06,12.82-7.06,8.35,0,14.52,8.79,12,14.26Z"/><path class="cls-1" d="M355.31,137.93c-.31-1.02-1.4-4.79-1.66-5.62-2.1-6.68-4.73-8.09-16.1-8.09-6.23,0-10.1-1.82-14.3-5.71-.42-.4-2.46-2.37-3.02-2.87-3.94-3.57-7.25-4.19-12.9-1.37h0c-12.85,6.43-17.48,10.89-23.22,21.21-.89,1.61-1.7,3.15-2.61,4.98l-2.12,4.3c-1.05,2.09-1.9,3.63-2.88,5.13-1.53,2.34-3.31,4.52-5.3,6.48-1.9,1.88-4.49,3.38-11.1,6.68-6.72,3.37-9.35,4.87-11.35,6.87-2.79,2.8-2.45,5.57,1.52,8.22,4.45,2.97,5.59,5.06,6.55,9.67,.88,4.18,2.62,5.41,9.73,5.41,4.92,0,6.62,2.13,7.16,6.86,.06,.6,.12,1.21,.16,1.81,.29,3.43,.62,4.7,1.94,5.5,1.63,.99,4.4,.31,8.98-2.23,3.12-1.74,6.11-3.7,8.95-5.88,3.6-2.75,13.38-11.69,15.22-13.06,3.64-2.72,6.83-4,10.59-4,7.16,0,12.39-3.81,19.59-12.35,.55-.64,2.86-3.43,3.46-4.14,1.29-1.53,2.31-2.66,3.31-3.66,1.25-1.26,2.75-2.08,4.6-2.66,1.05-.32,1.53-.42,3.85-.85,3.27-.61,4.6-1.18,5.37-2.79,.92-1.92,.41-5.07-1.72-10.24-1.06-2.57-1.9-4.97-2.7-7.6Zm3.52,17.41c-.58,1.21-1.7,1.68-4.65,2.23-2.37,.44-2.87,.55-3.97,.89-1.89,.54-3.61,1.54-5.01,2.91-1.17,1.19-2.3,2.43-3.37,3.72l-3.45,4.13c-7.03,8.33-12.06,12-18.83,12-4,0-7.39,1.36-11.18,4.19-1.9,1.42-11.69,10.37-15.24,13.07-2.79,2.15-5.74,4.08-8.82,5.8-4.29,2.38-6.78,2.99-7.98,2.25-.91-.55-1.21-1.66-1.46-4.72-.08-1.02-.11-1.34-.17-1.84-.58-5.18-2.65-7.75-8.15-7.75-6.66,0-7.97-.92-8.75-4.62-1.01-4.84-2.27-7.16-6.97-10.3-3.46-2.3-3.71-4.33-1.38-6.67,1.9-1.89,4.5-3.39,11.1-6.69,6.73-3.36,9.35-4.87,11.35-6.87,2.05-2.01,3.87-4.23,5.44-6.63,1.08-1.69,2.06-3.43,2.94-5.23l2.11-4.3c.91-1.82,1.71-3.35,2.6-4.94,5.63-10.15,10.11-14.47,22.78-20.8,5.27-2.64,8.14-2.09,11.79,1.21,.55,.49,2.57,2.46,3.01,2.86,4.37,4.05,8.48,5.98,14.98,5.98,10.98,0,13.19,1.19,15.14,7.39,.26,.81,1.35,4.58,1.66,5.61,.79,2.61,1.7,5.17,2.74,7.69,2.02,4.93,2.5,7.84,1.74,9.43Z"/><path class="cls-1" d="M360.93,67.65c-4.78,3.85-7.67,7.16-8.31,9.9-.8,3.38,1.79,5.67,7.85,6.67,3.22,.54,6.4,.74,9.53,.66v-1c-3.07,.08-6.2-.12-9.36-.65-5.57-.93-7.68-2.79-7.05-5.46,.57-2.45,3.36-5.63,7.97-9.35,2.63-2.09,5.35-4.07,8.16-5.92,.09-.06,.19-.12,.28-.18v-1.19c-.28,.18-.56,.36-.83,.54-3.14,2.09-5.89,4.07-8.24,5.97Z"/><path class="cls-1" d="M356.19,191.79c1.05-1.49,1.92-2.68,2.75-3.75,3.17-4.08,6.94-6.47,11.06-7.06v-1.01c-4.42,.58-8.46,3.1-11.84,7.44-.85,1.09-1.73,2.29-2.79,3.79l-2.82,4.03c-7.44,10.67-12.02,14.99-18,14.99-8.22,0-10.5,.28-13.68,2.13-2.03,1.19-4.07,3.04-6.7,6.04-2.38,2.71-4.89,4.41-9.52,6.6h2.28c3.62-1.85,5.85-3.49,8-5.94,2.55-2.93,4.53-4.71,6.45-5.83,2.96-1.74,5.13-2,13.17-2,6.45,0,11.18-4.47,18.83-15.42l2.81-4.02Z"/><path class="cls-1" d="M137.45,197.52c.76-6.01,2.45-11.87,5-17.36,3.13-6.51,7.26-12.49,12.25-17.71,3.31-3.51,5.42-5.39,11.67-10.63,4.68-3.93,6.61-5.8,7.94-8,.82-1.36,1.24-2.71,1.24-4.09,0-1.85,0-1.81-.75-9.43-.37-3.65-.58-6.24-.68-8.84-.46-11.27,1.44-18.01,6.75-19.78,16.31-5.44,26.71-12.52,34.55-26.46,9.17-16.29,24.91-30.49,34.13-30.49,12.74,0,20.79-2.06,30.59-9.19,6.56-4.78,9.18-6.37,11.85-7.15,1.96-.56,3.46-.66,8.56-.66,2.43,0,4.52-1.03,6.89-3.12,1.16-1.02,5.24-5.23,5.68-5.66,5.68-5.52,11.16-8.22,19.43-8.22,2.43,0,4.5,.04,7.26,.12,7.82,.24,9.27,.18,12.01-.82,3.16-1.15,5.6-2.95,13.66-10.03h-3.04c-6.47,5.63-8.69,7.2-11.31,8.15-2.4,.87-3.76,.93-11.27,.7-2.78-.08-4.87-.12-7.32-.12-8.85,0-14.79,2.93-20.83,8.78-.49,.48-4.52,4.64-5.6,5.6-2.04,1.79-3.71,2.62-5.57,2.62-5.32,0-6.9,.1-9.12,.74-2.97,.86-5.71,2.54-12.47,7.46-9.41,6.84-17.05,8.8-29.41,8.8-10.15,0-26.4,14.65-35.87,31.51-7.56,13.44-17.55,20.24-33.45,25.54-6.49,2.16-8.61,9.66-8.11,21.76,.11,2.66,.32,5.26,.68,8.96q.75,7.49,.75,9.23c0,1-.31,1.99-.95,3.06-1.17,1.94-3.02,3.72-7.52,7.5-6.3,5.29-8.45,7.19-11.83,10.79-5.13,5.37-9.38,11.52-12.6,18.22-2.64,5.68-4.39,11.74-5.18,17.95-1.25,8.95-1.02,18.41,.22,27.75h2.02c-1.25-9.26-1.49-18.63-.26-27.48Z"/><path class="cls-1" d="M177.6,208.32c-.17-4.36-.17-5.55,.17-7.4,.75-4.08,3.32-8.16,10.15-15.86,9.14-10.28,12.38-15.55,19.96-30.36,1.34-2.62,2.3-4.44,3.35-6.25,.86-1.51,1.78-3,2.74-4.45,3.05-4.58,6.92-8.28,16.65-16.6,11.34-9.7,15.66-14,18.38-19.45,.72-1.46,1.38-2.95,1.96-4.47l1.5-4.07c1.77-4.84,3.11-7.28,5.77-9.7,3.3-3,8.42-5.4,16.45-7.5,4.97-1.29,20.53-5.12,21.36-5.33,16.29-4.12,25.51-7.41,33.78-12.73q5.85-3.76,27.63-16.5l2.6-1.53c3.73-2.19,7.01-4.13,9.95-5.91v-1.18c-3.07,1.86-6.52,3.91-10.47,6.22l-2.6,1.52q-21.82,12.77-27.66,16.53c-8.15,5.24-17.29,8.5-33.48,12.6-.83,.21-16.39,4.04-21.38,5.34-14.89,3.88-19.27,7.87-22.9,17.81-.48,1.36-.98,2.71-1.49,4.05-.63,1.6-1.23,3-1.93,4.4-2.63,5.27-6.91,9.53-18.13,19.13-9.81,8.39-13.7,12.11-16.84,16.81-.95,1.44-1.87,2.92-2.77,4.5-1.05,1.83-2.03,3.66-3.38,6.3-7.54,14.74-10.73,19.95-19.8,30.15-6.95,7.81-9.61,12.04-10.39,16.34-.36,1.95-.37,3.18-.19,7.63,.22,5.62,.15,9.5-.55,15.3-.05,.45-.1,.89-.14,1.33h1.02c.04-.4,.08-.81,.13-1.21,.69-5.87,.77-9.79,.55-15.47Z"/><path class="cls-1" d="M230.67,220.65c-.06-.35-.09-.53-.19-1.32-.74-5.26-1.85-7.11-5.93-7.11h-26c-5.46,0-8.46,2.36-9.67,7.1-.44,1.71-.66,3.33-.7,5.68h1c.04-2.25,.25-3.81,.67-5.43,1.1-4.3,3.7-6.34,8.7-6.34h26c3.4,0,4.26,1.42,4.93,6.24l.2,1.34c.26,1.65,.64,3.04,1.2,4.19h1.13c-.65-1.13-1.06-2.56-1.34-4.35Z"/><path class="cls-1" d="M247.67,200.41c2.03,1.19,4.78,1.04,10.98-.2,1.81-.36,3.05,.58,4.02,2.88,.79,1.85,1.22,3.85,2.06,8.93,.97,5.81,1.59,8.32,2.87,10.35,1.77,2.81,4.46,3.19,8.22,.77,4.11-2.64,14.65-8.75,14.8-8.83,3.16-1.85,6.06-4.1,8.65-6.69,1.57-1.6,3.1-3.43,4.68-5.6,4.11-5.65,7.32-6.83,14.98-7.1,4.78-.17,6.98-.48,9.83-1.74,1.01-.45,2.04-1.17,3.1-2.15,1.74-1.68,3.32-3.52,4.72-5.5,.98-1.3,4.44-6.17,4.94-6.87,7.33-10.07,12.85-14.68,20.03-14.68,3.57,0,6.38-.39,8.45-1.13v-1.06c-1.93,.77-4.73,1.19-8.45,1.19-7.61,0-13.33,4.78-20.83,15.09-.53,.71-3.97,5.57-4.93,6.87-1.36,1.93-2.9,3.72-4.6,5.36-.99,.9-1.94,1.56-2.84,1.96-2.7,1.2-4.8,1.5-9.46,1.67-7.93,.27-11.42,1.55-15.74,7.5-1.39,1.94-2.93,3.77-4.6,5.48-2.53,2.53-5.37,4.73-8.46,6.54-.12,.08-10.67,6.19-14.81,8.85-3.32,2.14-5.38,1.84-6.84-.46-1.17-1.87-1.78-4.33-2.72-9.98l-.06-.36c-.8-4.8-1.24-6.85-2.07-8.8-1.14-2.69-2.79-3.94-5.14-3.47-5.93,1.19-8.54,1.33-10.27,.31-1.93-1.14-2.61-4.02-2.13-9.78,.22-2.63-1.49-3.91-4.7-4.11-2.35-.15-5.05,.19-10.17,1.12l-.7,.13c-7.62,1.38-10.4,1.65-12.1,.81-1.98-.97-.88-4.2,4.55-10.66,5.41-6.44,10.42-10.64,15.46-13.3,3.65-1.92,5.79-2.57,11.92-4.02,7.53-1.77,10.87-3.68,14.66-9.75,2.99-4.77,10.76-18.63,12.15-20.82,3.5-5.55,6.6-8.85,10.66-11,2.67-1.41,4.81-2.86,9.3-6.15l1.38-1.01c7.69-5.58,12-7.78,17.09-7.78,3.88,0,5.87,1.2,8.34,4.38,.33,.42,1.66,2.21,2.01,2.67,.86,1.12,1.64,2.03,2.51,2.93,1.92,1.94,4.12,3.57,6.92,4.97h0c3.23,1.61,6.9,2.13,11.2,1.79,2.59-.2,5.01-.63,8.94-1.5,9.04-2.01,11.53-2.21,13.76-.36,.32,.27,.58,.53,.77,.79v-1.44s-.08-.08-.13-.12c-1.47-1.23-3.51-1.63-6.29-1.4-2,.16-2.97,.35-8.33,1.54-3.89,.87-6.27,1.29-8.8,1.49-4.14,.32-7.62-.17-10.68-1.7h0c-2.47-1.21-4.71-2.82-6.64-4.78-.85-.85-1.6-1.74-2.45-2.83-.33-.45-1.66-2.24-2-2.67-2.64-3.41-4.91-4.77-9.13-4.77-5.38,0-9.83,2.26-17.68,7.98l-1.38,1.01c-4.45,3.25-6.57,4.69-9.17,6.07-4.25,2.24-7.46,5.67-11.05,11.34-1.4,2.22-9.18,16.09-12.14,20.84-3.64,5.8-6.75,7.59-14.04,9.31-6.22,1.45-8.42,2.13-12.16,4.1-5.16,2.72-10.28,7-15.76,13.53-5.83,6.94-7.14,10.78-4.23,12.21,2,.99,4.75,.72,12.72-.73l.69-.12c5.04-.92,7.7-1.25,9.94-1.12,2.72,.17,3.92,1.08,3.76,3.04-.51,6.11,.25,9.33,2.62,10.73Z"/><path class="cls-1" d="M255.59,225h2.01c.02-.15,.04-.3,.06-.46,.95-6.35,.68-9.38-2.22-13.12-2.96-3.8-4.88-4.51-6.78-2.55-.34,.34-1.48,1.77-1.68,2-1.77,2.01-3.72,2.8-7.15,2.18-3.15-.57-3.81-2.8-3.09-7.84l.24-1.53c.68-4.24,.77-5.57,.06-7-1.06-2.12-3.59-2.24-7.76-.58l-.75,.3c-13.52,5.45-15.04,6-18.95,6.55-4.9,.68-7.04-.92-7.04-5.92,0-12.09,2.12-15.52,17.74-28.22,2.31-1.87,4.77-3.55,7.35-5.02,2.68-1.52,5.46-2.88,8.3-4.08,1.21-.52,2.45-1.03,4.05-1.67l3.92-1.58c9.81-3.99,14.47-7.08,17.63-12.96,1.22-2.28,2.33-4.61,3.32-7,.53-1.29,1.05-2.58,1.56-3.88l.28-.74,.57-1.43c3.05-7.67,5.69-11.41,11.95-15.58,1.87-1.25,3.62-2.66,5.24-4.23,1.44-1.4,2.79-2.89,4.04-4.46,.29-.35,2.55-3.21,3.18-3.95,3.14-3.74,5.65-5.2,9.98-5.2,3.37,0,6.12-.67,10.27-2.22,5.09-1.89,6.12-2.19,8.15-2.07,2.01,.1,3.88,1.01,5.87,3,1.27,1.26,5.53,5.81,6.53,6.79,5.42,5.36,10.3,7.5,19.18,7.5,2.96,0,5.86,.12,10.95,.39l1.02,.06c2.32,.13,4.43,.23,6.37,.3v-2.01c-1.9-.07-3.97-.17-6.26-.3-4.02-.27-8.05-.42-12.08-.45-8.33,0-12.71-1.92-17.77-6.92-.97-.95-5.22-5.48-6.52-6.78-2.33-2.33-4.65-3.46-7.18-3.59-2.43-.14-3.54,.18-8.96,2.2-3.95,1.47-6.49,2.1-9.57,2.1-5,0-8.03,1.75-11.51,5.9-.65,.78-2.93,3.64-3.2,3.98-1.2,1.51-2.5,2.94-3.88,4.29-1.53,1.48-3.19,2.82-4.96,4-6.65,4.42-9.5,8.48-12.7,16.5l-.56,1.44-.3,.74c-.5,1.29-1.01,2.57-1.54,3.84-1.02,2.43-2.03,4.61-3.23,6.83-2.88,5.35-7.22,8.22-16.62,12.05l-3.92,1.57c-1.62,.65-2.86,1.17-4.1,1.7-3.17,1.36-5.9,2.68-8.5,4.18-2.67,1.52-5.22,3.26-7.61,5.2-16.04,13.03-18.48,16.97-18.48,29.77h0c0,6.3,3.28,8.74,9.31,7.9,4.17-.58,5.65-1.13,19.43-6.67l.74-.29c3.33-1.34,4.79-1.26,5.23-.4,.43,.87,.35,2.14-.25,5.8l-.24,1.56c-.85,5.98,.12,9.25,4.72,10.09,4.15,.75,6.79-.32,9-2.82,.26-.31,1.36-1.68,1.61-1.94,.81-.83,1.45-.59,3.77,2.39,2.48,3.18,2.7,5.75,1.83,11.6-.04,.27-.07,.5-.11,.75Z"/><path class="cls-1" d="M368.22,150.1c.65,.56,1.24,1.12,1.78,1.68v-1.42c-.36-.34-.73-.68-1.12-1.02-6.54-5.6-7.83-8.32-7.83-15.62,0-2.26,1.5-4.16,5.03-7.09,2.15-1.79,3.25-2.72,3.92-3.41v-1.66c-.5,.89-1.26,1.55-4.56,4.3-3.75,3.12-5.39,5.19-5.39,7.86,0,7.59,1.42,10.59,8.17,16.38Z"/><path class="cls-1" d="M163.62,19.71c-1.56,.35-2.07,2.21-2.07,6.02,0,7.64,5.09,10.19,8.83,4.55,2.03-3.05,1.95-4.79-.01-6.36-.05-.03-1.97-1.41-2.55-1.93h0c-2.2-1.98-3.02-2.54-4.2-2.28Zm5.5,5.77c1.07,.86,1.1,1.44-.4,3.7-2.5,3.76-5.17,2.42-5.17-3.45,0-2.83,.33-4.03,.5-4.06,.2-.05,.93,.45,2.43,1.8h0c.69,.61,2.67,2.04,2.64,2.01Z"/><path class="cls-1" d="M206.73,0h-1.6c-6.87,5.56-9.39,9.54-9.59,14.04-.04,1.53,.05,3.06,.27,4.58,.67,6.31,.25,10.32-2.72,16.9-1.38,3.07-2.71,5.47-4.06,7.37-2.7,3.78-5.19,5.45-10.14,7.33-.42,.16-3.34,1.23-4.28,1.59-1.81,.7-3.42,1.38-5.08,2.18-4.72,2.3-9.17,5.1-13.29,8.35-8.62,6.66-13.53,14.9-16.33,25.6-1.11,4.25-1.57,6.88-2.81,15.32-1.25,8.49-2.15,12.46-4,16.25-2.1,4.3-11.95,26.63-12.98,28.91-2.31,5.07-4.38,9.45-6.35,13.38-4.04,8.04-7.55,13.95-10.6,17.61-5.49,6.59-9.13,14.57-13.96,28.73-.63,1.87-1.25,3.73-1.88,5.6-1.24,3.79-2.59,7.54-4.04,11.26h1.08c1.16-2.96,2.27-6.08,3.9-10.93,.62-1.87,1.25-3.74,1.89-5.6,4.79-14.05,8.39-21.96,13.77-28.42,3.12-3.74,6.66-9.7,10.73-17.81,2.21-4.43,4.33-8.9,6.37-13.41,1.04-2.29,10.87-24.6,12.97-28.88,1.91-3.91,2.82-7.95,4.08-16.55,1.25-8.4,1.7-11.01,2.8-15.21,2.75-10.5,7.54-18.55,15.98-25.06,4.7-3.64,8.92-6.24,13.1-8.24,1.63-.78,3.21-1.46,5.01-2.14,.93-.36,3.84-1.43,4.27-1.59,5.13-1.95,7.78-3.72,10.6-7.69,1.63-2.37,3.02-4.89,4.16-7.53,3.05-6.77,3.49-10.95,2.8-17.42-.26-2.5-.32-3.26-.26-4.43,.2-4.37,2.78-8.28,10.19-14.09Z"/><path class="cls-1" d="M10.72,48.9c1.55-1.52,7-7.17,7.15-7.32,7-7.12,12.32-11.23,19.05-13.92,3.27-1.31,8-2.74,17.24-5.32,3.94-1.08,7.87-2.17,11.8-3.28,4.25-1.19,8.48-2.43,12.7-3.71,16.95-5.18,29.27-10.09,37.06-15.35h-3.76c-7.64,4.51-18.93,8.87-33.88,13.44-4.21,1.28-8.43,2.51-12.67,3.7-3.93,1.09-7.85,2.18-11.78,3.28-9.32,2.59-14.09,4.04-17.45,5.38-7.04,2.82-12.56,7.08-19.74,14.38-.16,.17-5.59,5.8-7.12,7.3-1.96,1.98-4.08,3.8-6.34,5.43-.6,.42-1.67,1.13-2.98,2v2.39c1.83-1.2,3.35-2.21,4.12-2.75,2.35-1.7,4.56-3.59,6.6-5.65Z"/><path class="cls-1" d="M360.51,59.9c-9.13,5.87-15.02,10.12-18.73,13.8-4.72,4.67-5.52,8.29-1.47,10.47,1.86,1.02,3.67,2.11,5.44,3.27l3.2,2.07c5.75,3.67,9.69,5.39,14.77,5.92,1.98,.2,4.07,.19,6.28-.06v-1.01c-2.19,.25-4.24,.27-6.18,.07-4.89-.51-8.7-2.17-14.34-5.76l-3.2-2.08c-2.21-1.42-3.8-2.39-5.5-3.3-3.25-1.75-2.61-4.6,1.7-8.88,3.65-3.61,9.5-7.83,18.57-13.66,1.48-.95,2.96-1.89,4.45-2.83,1.64-1.04,3.14-1.98,4.5-2.84v-1.18c-1.51,.95-3.17,2-5.03,3.18l-4.46,2.82Z"/><path class="cls-1" d="M21.43,0C15.15,3.29,8.95,7.92,0,15.69v1.32C10.08,8.22,16.67,3.38,23.64,0h-2.21Z"/><path class="cls-1" d="M118.11,215.48c-.04-4.49-.06-6.36-.06-8.75,0-25.1,9.01-55.03,22.88-71.68,5.7-6.83,9.06-13.23,10.59-19.43,1.12-4.54,1.22-8.08,.77-13.26-.23-2.65-.24-2.81-.24-3.63,0-5.54,.32-9.42,1.58-13.82,2.19-7.64,6.64-12.84,14.04-14.69,13.83-3.46,33.2-17.76,45.25-31.16,10.19-11.32,34.5-22.83,51.63-22.83,5.24,0,10.08-1.37,15.71-4.17,1.95-.97,3.94-2.08,6.64-3.66-.3,.17,5.32-3.16,6.97-4.1,2.82-1.62,5.49-3.04,8.12-4.3h-2.27c-2.06,1.04-4.17,2.17-6.35,3.43-1.65,.95-7.28,4.29-6.98,4.11-2.68,1.57-4.65,2.66-6.58,3.62-5.49,2.74-10.19,4.07-15.26,4.07-17.42,0-42,11.64-52.37,23.17-11.93,13.25-31.15,27.44-44.75,30.84-7.79,1.95-12.48,7.44-14.76,15.39-1.3,4.53-1.62,8.48-1.62,14.1,0,.86,.01,1.02,.24,3.72,.44,5.08,.35,8.53-.74,12.93-1.5,6.04-4.78,12.31-10.38,19.03-14.05,16.85-23.12,47-23.12,72.32,0,2.39,.02,4.27,.06,8.75,.04,3.8,.07,6.86,.06,9.52h1c0-2.66-.03-5.73-.07-9.52Z"/><path class="cls-1" d="M289.77,0h-4.36c-7.44,3.42-13.34,3.18-19.84,0h-4.04c1.23,.75,2.26,1.35,2.94,1.69,8.14,4.06,15.54,3.84,25.3-1.69Z"/><path class="cls-1" d="M370,208.37c-3.34,0-7.28,2.26-11.82,7.01-4.23,4.43-8.01,7.53-11.6,9.62h1.89c3.26-2.1,6.69-4.99,10.45-8.92,4.39-4.59,8.04-6.72,11.08-6.71v-1Z"/><path class="cls-1" d="M162.53,221.47c-.94-11.63-.72-18.87,1.73-26.85,1.88-6.19,5.18-11.86,9.65-16.55,1.67-1.76,3.18-3.27,4.83-4.85,.63-.6,3.13-2.96,3.75-3.57,.51-.49,1.02-.99,1.52-1.5,3.09-3.16,5.86-6.76,9.96-13.15,4.77-7.42,6.15-11.71,8.34-22.44,.86-4.21,1.5-6.4,2.68-8.6,.68-1.25,1.79-2.48,3.43-3.86,1.38-1.15,9.43-6.8,11.8-8.72,1.71-1.4,3.26-2.81,4.7-4.3,2.72-2.85,4.56-5.54,10.36-14.67,1.93-3.12,3.96-6.17,6.1-9.15,3.2-4.33,5.9-7.01,8.37-8.07,3.5-1.5,7.06-2.77,11.1-4.02,2.52-.78,5.05-1.51,7.6-2.2l2.38-.67c6.19-1.79,9.81-3.16,12.98-5.15,2.14-1.33,5.08-2.33,10.27-3.65l6.14-1.53c2.5-.63,4.55-1.2,6.52-1.82,7.24-2.27,12.79-5.06,17.15-9.05,4.05-3.72,9-6.2,18.66-9.9l4.75-1.82c1.87-.72,3.39-1.31,4.85-1.91,7.38-3.03,13.09-6.08,17.85-9.87v-1.28c-4.8,3.96-10.6,7.1-18.23,10.22-1.45,.6-2.96,1.2-4.83,1.9l-4.75,1.82c-9.78,3.75-14.8,6.27-18.98,10.1-4.23,3.88-9.65,6.6-16.77,8.84-1.95,.6-3.99,1.17-6.47,1.8l-6.14,1.53c-5.29,1.35-8.3,2.37-10.54,3.78-3.08,1.92-6.63,3.26-12.74,5.03-1.6,.46-3.21,.92-4.82,1.36-2.04,.58-3.6,1.04-5.17,1.52-3.8,1.15-7.54,2.5-11.2,4.05-2.7,1.15-5.5,3.93-8.78,8.4-2.16,2.99-4.21,6.06-6.15,9.2-5.75,9.07-7.58,11.74-10.24,14.51-1.45,1.5-2.98,2.91-4.6,4.22-2.33,1.9-10.39,7.54-11.81,8.74-1.48,1.14-2.72,2.55-3.67,4.15-1.24,2.3-1.9,4.57-2.78,8.87-2.17,10.61-3.52,14.81-8.2,22.1-4.07,6.33-6.8,9.88-9.83,12.99-.47,.48-.95,.96-1.5,1.48l-3.75,3.56c-1.67,1.6-3.18,3.12-4.86,4.9-4.57,4.8-7.96,10.6-9.89,16.94-2.5,8.13-2.72,15.47-1.76,27.22,.12,1.44,.21,2.56,.28,3.45h1c-.07-.91-.16-2.05-.29-3.53Z"/><path class="cls-1" d="M72.8,53.54c-3.25,.49-5.17,.69-7.25,.69h0c-1.14,0-2.12-.01-3.77-.04-8.41-.15-10.8,.22-14.18,2.93-.47,.37-.94,.79-1.4,1.26-.2,.19-8.28,7.66-11.45,10.8-1.51,1.5-2.89,2.93-4.15,4.3-4.22,4.57-6.93,8.32-7.8,11.13-1.13,3.59,.77,5.62,5.75,5.62,9.7,0,14.86-2.15,23.05-8.03l.8-.57c4.06-2.91,6.29-4.27,9.33-5.43l2.28-.86,.27-.1c7.62-2.87,10.91-4.3,14.15-6.4,4.35-2.82,6.62-6.06,6.62-10.11,0-3.34-1.27-5.13-3.79-5.69-1.82-.4-3.24-.27-8.46,.5Zm11.25,5.19c0,3.67-2.08,6.62-6.16,9.27-3.17,2.05-6.42,3.46-13.97,6.3l-.25,.1-2.3,.86c-3.14,1.2-5.43,2.6-9.56,5.56l-.8,.57c-8.02,5.77-13,7.84-22.46,7.84-4.35,0-5.7-1.44-4.8-4.32,.82-2.63,3.46-6.28,7.58-10.75,1.34-1.45,2.72-2.87,4.12-4.26,3.15-3.13,11.25-10.61,11.45-10.82,.44-.44,.88-.83,1.32-1.18,3.14-2.51,5.36-2.85,13.54-2.71,1.66,.03,2.64,.04,3.79,.04h0c2.14,0,4.1-.2,7.4-.7,5.05-.75,6.45-.87,8.1-.5,2.03,.44,3,1.81,3,4.7Z"/><path class="cls-1" d="M145.23,199.12c1-9,4.61-16.2,11.64-22,22.25-18.39,30.18-30.6,30.18-45.39,0-2.67-.3-4.95-1-8.37-.95-4.67-1.08-5.54-.95-7.3,.17-2.3,1.12-4.18,3.22-6.04,2.55-2.25,6.83-4.46,13.4-6.82,9.96-3.59,15.88-9.39,24.78-21.93l1.77-2.5c9.14-12.91,14.66-18.12,24.4-20.56,13.35-3.33,20.46-5.5,25.5-7.7,1.85-.81,3.65-1.73,5.39-2.75,1.43-.85,2.85-1.72,4.25-2.61,2.5-1.56,4.91-1.93,10.89-2.13,5.53-.18,8.05-.45,11.25-1.45,3.85-1.23,7.29-3.48,9.97-6.5,4.69-5.12,9.65-7.34,17.21-8.6,1.06-.17,1.87-.29,3.84-.57,7.02-.98,10.14-1.73,13.82-3.73,3.69-2.02,5.87-3.68,15.21-12.12v-1.35c-9.8,8.89-12.01,10.59-15.69,12.59-3.54,1.93-6.58,2.65-13.48,3.62-1.98,.28-2.79,.4-3.86,.58-7.76,1.29-12.92,3.6-17.79,8.9-2.56,2.89-5.86,5.04-9.54,6.22-3.07,.98-5.53,1.23-10.97,1.41-6.16,.2-8.68,.6-11.38,2.28-2.49,1.56-3.14,1.95-4.24,2.6-1.7,1-3.47,1.91-5.28,2.7-4.97,2.17-12.04,4.32-25.34,7.64-5.56,1.4-10.23,4.1-14.54,8.17-3.33,3.15-5.95,6.45-10.43,12.78l-1.78,2.5c-8.78,12.39-14.58,18.07-24.3,21.57-6.67,2.41-11.05,4.66-13.72,7.01-2.29,2.02-3.36,4.16-3.56,6.72-.13,1.89,0,2.78,.97,7.57,.68,3.36,.98,5.57,.98,8.17,0,14.43-7.77,26.41-29.81,44.61-7.25,5.99-10.97,13.42-12,22.67-.78,7.03-.16,13.75,1.89,25.99h1.01c-2.06-12.26-2.68-18.94-1.91-25.88Z"/><path class="cls-1" d="M127.74,203.84c.58-11.42,2.38-21.93,5.76-31.9,1.27-3.75,2.77-7.42,4.5-10.99,3.42-7.06,6.75-12.24,10.28-16.38,1.35-1.57,2.77-3.07,4.28-4.49,.42-.4,3-2.79,3.69-3.46,5.93-5.82,7.8-11.99,7.8-29.89,0-10.11,1.06-16.27,3.29-20.05,1.84-3.12,4.2-4.61,9.28-6.37,3.67-1.25,4.51-1.55,5.37-1.87,2.23-.83,4.23-1.7,6.23-2.75,5.03-2.65,9.82-6.34,14.7-11.62,25.33-27.44,36.76-34.84,55.63-34.84,8.47,0,14.9-2,22.5-6.43,1.81-1.05,13.85-8.84,18.15-11.27,2.79-1.57,5.65-3.02,8.56-4.35,7.76-3.52,13.7-4.36,26.2-4.7,7.63-.21,10.85-.51,14.53-1.63,.79-.24,1.54-.53,2.28-.85h-2.94c-3.41,1-6.62,1.28-13.88,1.47-12.63,.35-18.68,1.2-26.6,4.8-2.97,1.36-5.8,2.8-8.63,4.39-4.34,2.45-16.38,10.24-18.16,11.27-7.46,4.35-13.72,6.3-22,6.3-19.22,0-30.87,7.53-56.37,35.16-4.8,5.2-9.49,8.82-14.44,11.42-1.97,1.03-4.01,1.93-6.1,2.7-.85,.31-1.68,.61-2.77,.98-12.92,4.47-15.82,9.4-15.82,28.24,0,17.66-1.79,23.58-7.51,29.18-.67,.65-3.24,3.05-3.67,3.45-1.53,1.44-2.98,2.96-4.35,4.56-3.59,4.21-6.96,9.46-10.42,16.6-1.75,3.6-3.25,7.3-4.55,11.1-3.41,10.06-5.23,20.66-5.81,32.16-.35,6.83-.29,13.01,.14,21.22h1c-.42-8.2-.49-14.37-.14-21.16Z"/><path class="cls-1" d="M111.35,225c.15-4.31,.21-8.99,.21-14.27,0-6.69-2.33-11.75-6.13-11.75-4.15,0-8.57,6.17-12.81,18.42-.93,2.67-1.88,5.2-2.86,7.6h2.14c.89-2.21,1.75-4.51,2.59-6.94,3.97-11.47,7.99-17.08,10.93-17.08,2.27,0,4.13,4.04,4.13,9.75,0,5.29-.06,9.96-.21,14.27h2.01Z"/><path class="cls-1" d="M52.46,208.15c1.7-3.65,1.92-4.13,2.66-5.8,3.01-6.85,4.82-12.55,5.41-18.1,.24-2.31,.25-4.52,.01-6.64-.37-3.27-1.68-5.41-4.61-8.5-.22-.21-1.09-1.13-1.32-1.37-.96-1.01-1.64-1.78-2.26-2.61-.88-1.21-1.66-2.48-2.34-3.81l-1.11-2.13c-1.78-3.38-2.98-5.09-4.8-6.29-5.63-3.77-15.37-5.8-29.45-7.17-1.86-.18-3.69-.32-6.93-.55-1.45-.1-2.89-.21-4.34-.32-1.19-.09-2.31-.18-3.38-.28v2c1.02,.09,2.09,.18,3.22,.26l2.18,.17c3.02,.19,6.03,.42,9.04,.71,13.75,1.33,23.29,3.33,28.55,6.83,1.44,.96,2.5,2.46,4.12,5.56l1.13,2.14c.73,1.42,1.56,2.78,2.5,4.07,.75,.98,1.55,1.91,2.41,2.79l1.32,1.37c2.66,2.8,3.76,4.6,4.08,7.35,.22,1.97,.21,4.03-.02,6.2-.56,5.3-2.32,10.83-5.25,17.5-.73,1.66-.95,2.13-2.65,5.77-2.86,6.14-11.72,6.44-24.75,1.73-8.3-3-17.93-8-25.88-13.11v2.36c7.86,4.94,17.13,9.7,25.21,12.62,13.92,5.03,23.76,4.7,27.25-2.77Z"/><path class="cls-1" d="M8.93,62.07c7.65-8.42,12.7-13.27,19.92-18.43,9.84-7.03,21.17-12.24,34.82-15.42,37.2-8.68,51.19-12.75,59.17-18.07,2.92-1.95,6.28-5.36,10.03-10.15h-1.28c-3.48,4.38-6.6,7.5-9.31,9.31-7.83,5.23-21.8,9.29-58.83,17.93-13.78,3.22-25.24,8.48-35.18,15.58-7.3,5.21-12.38,10.11-20.08,18.57-2.05,2.22-4.22,4.34-6.5,6.33-.37,.33-.98,.86-1.69,1.48v1.33c.99-.86,1.87-1.62,2.36-2.06,2.3-2.02,4.5-4.15,6.57-6.4Z"/><path class="cls-1" d="M11.62,176.04c2.98-1.37,4.43-4.15,4.43-8.93,0-5.8-1.25-7.24-5.69-8.07-4.36-.81-5.79-1.2-8.57-2.75-.59-.33-1.19-.62-1.79-.88v1.1c.44,.2,.88,.42,1.31,.66,2.9,1.61,4.41,2.03,8.86,2.86,3.98,.74,4.88,1.78,4.88,7.08h0c0,4.42-1.25,6.82-3.85,8.02-2.1,.96-4.3,1.14-10.36,1.1H0v1.01H.83c6.24,.03,8.5-.15,10.79-1.2Z"/><path class="cls-1" d="M11.15,32.46c4.11-3.61,8.44-6.97,12.95-10.07,4.63-3.09,8.79-5.18,12.56-6.19,7.29-1.9,14.56-3.89,21.8-5.97,12.6-3.66,22.06-6.94,28.3-10.06,.12-.06,.25-.11,.38-.17h-2.31c-6.16,2.88-15.06,5.92-26.65,9.28-6.17,1.79-8.99,2.56-21.77,5.97-3.9,1.04-8.15,3.17-12.87,6.32-3.96,2.65-8.08,5.89-13.05,10.15-2.24,1.91-9.49,8.3-9.47,8.3-.35,.31-.69,.6-1.02,.89v1.29c.56-.48,1.13-.94,1.67-1.43,0,0,7.24-6.38,9.48-8.3Z"/><path class="cls-1" d="M51.54,40.23c10.08,0,54.16-12.02,66.22-18.05,6.51-3.25,15.4-11.81,24.36-22.18h-1.32c-8.69,9.98-17.25,18.17-23.47,21.28-11.94,5.97-55.86,17.95-65.78,17.95-8.45,0-33.9,21.03-51.54,40.61v1.49c17.48-19.59,43.38-41.1,51.54-41.1Z"/><path class="cls-1" d="M134.09,62.51c.15-.23,1.18-1.77,1.47-2.18,1.52-2.18,2.61-3.1,3.99-3.1,7.81,0,15.26-2.05,20.35-7.15,1.7-1.69,3.83-2.71,8.68-4.46l1.02-.37c4.27-1.56,6.49-2.58,8.47-4.16,2.61-2.08,3.98-4.77,3.98-8.36,0-15.43,3.11-27.3,10.51-32.73h-1.59c-7.01,5.97-9.92,17.7-9.92,32.73,0,5.91-3.19,8.45-11.79,11.58l-1.02,.37c-5,1.8-7.21,2.86-9.04,4.7-4.87,4.85-12.08,6.85-19.65,6.85-1.81,0-3.11,1.09-4.81,3.52l-1.48,2.2c-2.51,3.68-4.52,5.28-7.71,5.28-8.04,0-11.08,.98-22.24,7.06-5.02,2.74-8.48,3.47-14.2,3.57h-.91c-4.91,.07-7.29,.31-10.8,1.4-3.08,1-6.09,2.2-9.01,3.6-2.18,1-10.54,5.02-10.24,4.88-7.74,3.67-13.24,5.94-18.74,7.51-12.11,3.46-17.97,2.22-26.57-3.92-2.09-1.5-2.2-3.51-.55-6.3,1.38-2.34,3.8-4.93,7.9-8.75l1.77-1.63c3.94-3.61,4.51-4.13,5.94-5.57,2.4-2.39,3.24-3.63,5.64-7.83,1.86-3.24,3.21-4.88,5.96-6.73,2.22-1.49,5.19-2.9,9.22-4.32h0c3.67-1.29,8.63-2.68,16-4.52,2.58-.65,16.53-4.03,20.56-5.05,19.71-4.96,31.74-8.94,38.55-13.48,8.8-5.87,19.97-16.51,29.15-27.15h-1.33c-9.01,10.35-19.84,20.62-28.38,26.31-6.68,4.45-18.64,8.42-38.23,13.35-4.03,1.01-17.98,4.4-20.56,5.05-7.4,1.85-12.39,3.24-16.1,4.55h0c-4.1,1.45-7.14,2.89-9.44,4.43-2.9,1.95-4.34,3.7-6.27,7.06-2.36,4.13-3.16,5.31-5.48,7.63-1.42,1.42-1.98,1.93-5.9,5.53l-1.78,1.64c-4.18,3.88-6.63,6.52-8.08,8.97-1.89,3.19-1.75,5.77,.83,7.62,8.84,6.31,15.01,7.62,27.42,4.07,5.58-1.59,11.11-3.87,18.9-7.57-.3,.14,8.06-3.87,10.23-4.87,2.88-1.38,5.85-2.57,8.89-3.56,3.39-1.04,5.69-1.28,10.51-1.34,.45-.02,.66-.02,.92-.02,5.86-.1,9.48-.86,14.66-3.68,11.02-6.01,13.92-6.94,21.76-6.94,3.61,0,5.86-1.8,8.54-5.72Z"/><path class="cls-1" d="M94.91,179.06c8.1-9,15.13-36.43,15.13-53.33,0-1.81,.17-3.02,1.01-8.1,.3-1.7,.55-3.41,.75-5.13,.64-5.72,.21-9.87-1.84-13.04-4.89-7.57-20.41-9.75-39.54-5.22-7.51,1.78-13.7,3.89-19.11,6.37-5.25,2.41-17.23,9.79-16.56,9.44-6.49,3.5-12.49,4-24.09,1.2-4.13-1-7.66-1.86-10.66-2.67v1c2.98,.81,6.43,1.67,10.42,2.64,11.83,2.85,18.08,2.34,24.8-1.3-.61,.34,11.33-7.03,16.5-9.4,6.09-2.72,12.43-4.83,18.94-6.3,18.76-4.45,33.86-2.32,38.46,4.78,1.89,2.93,2.31,6.88,1.68,12.39-.16,1.47-.37,2.87-.74,5.07-.85,5.16-1.02,6.37-1.02,8.27,0,16.67-6.97,43.88-14.87,52.67-3.8,4.21-6.9,10.83-11.56,23.27l-2.74,7.33c-1.03,2.74-1.87,4.88-2.67,6.8-1.74,4.17-3.26,7.16-4.75,9.2h1.22c1.41-2.08,2.84-4.96,4.45-8.81,.8-1.94,1.64-4.08,2.68-6.84,.53-1.39,2.38-6.4,2.73-7.33,4.61-12.31,7.69-18.87,11.37-22.96Z"/><path class="cls-1" d="M75.01,196.47c1.06-2.62,2.39-5.12,3.97-7.46,9.42-14.14,15.08-26.4,15.08-37.28,0-3.51,.74-6.43,3.31-14.55,.52-1.64,.84-2.67,1.16-3.74,3.75-12.61,3.12-19.92-4.7-25.13-3.11-2.1-6.67-3.45-10.4-3.93-7.45-.96-14.9,1.18-24.49,5.98-1.56,.78-6.65,3.44-7.6,3.92-1.24,.62-2.54,1.35-4.2,2.35l-4.4,2.65c-11.42,6.8-19.95,8.99-32.06,5.96-3.54-.84-7.1-1.58-10.68-2.21v1.04c5.01,.92,7.57,1.43,10.42,2.15,12.41,3.1,21.19,.84,32.81-6.08l4.4-2.66c1.35-.82,2.73-1.59,4.14-2.3,.96-.49,6.05-3.15,7.6-3.93,9.42-4.71,16.71-6.81,23.91-5.88,3.58,.46,6.99,1.76,9.98,3.78,7.33,4.88,7.93,11.77,4.29,24-.32,1.07-.63,2.09-1.15,3.73-2.61,8.23-3.36,11.19-3.36,14.85,0,10.62-5.59,22.74-14.92,36.72-1.61,2.4-2.97,4.96-4.06,7.64-.41,1.02-.81,2.04-1.18,3.07-3.24,8.8-4.18,11.04-7.78,17.32-2.05,3.59-5.49,6.45-9.68,8.52h2.14c3.6-2.06,6.55-4.74,8.43-8.02,3.63-6.34,4.59-8.62,7.84-17.47,.45-1.22,.81-2.14,1.18-3.04Z"/><path class="cls-1" d="M12.38,220.41c-2.12-1.27-7.97-4.72-12.38-7.33v1.15c4.35,2.56,9.85,5.81,11.89,7.04,2.05,1.23,4.1,2.48,6.14,3.73h1.98c-.41-.22-.81-.45-1.2-.69-2.13-1.31-4.27-2.61-6.42-3.9Z"/></svg>